<?xml version="1.0"?>
<svg viewBox="0 0 782 165" xmlns="http://www.w3.org/2000/svg" xmlns:svg="http://www.w3.org/2000/svg">
 <g class="layer">
  <title>Layer 1</title>
  <g id="svg_1">
   <path d="m341.5,34.57l1.21,0.01l2.15,0.03l1.03,0.03l1.83,0.06l1.76,0.08l2.82,0.28l1.33,0.16l2.31,0.51l3.44,1.08l1.52,0.57l3.49,1.78l1.75,0.96l3.34,2.17l0.78,0.53l1.41,1.06l0.66,0.51l1.09,0.96l0.49,0.46l0.67,0.79l0.42,0.92l0,0.15l-0.23,0.5l-0.15,0.27l-0.48,0.68l-2.06,2.3l-2.92,2.8l-4.65,-3.55l-1.73,-1.33l-3.45,-2.03l-1.75,-0.92l-3.73,-1.29l-1.93,-0.57l-4.35,-0.65l-1.14,-0.13l-2.45,-0.16l-3.98,-0.08l-1.07,0l-1.84,0.02l-0.88,0.01l-1.51,0.06l-1.45,0.08l-2.3,0.35l-1.11,0.21l-2.17,0.74l-0.57,0.22l-1.23,0.53l-2.09,0.96l-2.02,0.96l-3.73,2.37l-1.81,1.26l-3.25,2.93l-1.57,1.53l-2.71,3.43l-3.38,5.61l-0.64,1.31l-0.88,2.09l-0.38,1.03l-0.47,2.12l-0.09,0.57l-0.14,1.28l-0.06,0.66l-0.07,1.55l-0.03,0.81l-0.03,1.92l-0.02,3.38l0,1.23l0.02,2.1l0.01,1l0.05,1.71l0.03,0.81l0.11,1.41l0.05,0.67l0.17,1.2l0.18,1.15l0.63,2.04l1.42,3.38l0.89,1.88l2.36,3.59l1.27,1.75l3.04,3.21l1.59,1.55l3.6,2.73l5.88,3.42l0.77,0.36l1.33,0.61l0.65,0.28l1.16,0.47l1.14,0.43l2.17,0.52l1.13,0.22l2.74,0.19l0.76,0.04l1.75,0.03l3.1,0.02l1.1,0l1.89,-0.02l0.9,-0.01l1.56,-0.06l1.49,-0.07l2.33,-0.3l1.1,-0.19l2.02,-0.62l3.35,-1.42l1.57,-0.74l3.53,-1.96l0.84,-0.49l1.53,-0.95l1.84,-1.28l3.58,-2.72l3.18,3.23l3.19,3.24l-4.78,4.37l-1.22,1.11l-2.8,1.98l-1.45,0.94l-3.21,1.63l-1.65,0.78l-3.54,1.26l-1.8,0.59l-3.78,0.89l-1.92,0.39l-3.93,0.49l-1.98,0.19l-4.01,0.07l-2,-0.02l-3.99,-0.36l-1.99,-0.24l-3.89,-0.81l-1.93,-0.47l-3.72,-1.3l-1.84,-0.71l-3.51,-1.75l-1.72,-0.94l-3.26,-2.18l-1.6,-1.14l-2.97,-2.58l-1.45,-1.34l-2.66,-2.94l-1.28,-1.51l-2.31,-3.28l-1.1,-1.67l-1.92,-3.57l-2.4,-5.67l-0.36,-1l-0.58,-2.28l-0.27,-1.17l-0.4,-2.56l-0.36,-2.61l-0.19,-5.66l-0.01,-2.84l0.51,-5.56l0.17,-1.35l0.48,-2.55l0.91,-3.52l0.54,-1.69l1.35,-3.24l0.72,-1.59l1.68,-3.01l0.89,-1.48l2.01,-2.78l1.04,-1.35l2.32,-2.53l1.19,-1.23l2.61,-2.25l1.33,-1.09l2.89,-1.97l1.47,-0.95l3.14,-1.67l4.98,-2.14l1.69,-0.62l2.71,-0.86l1.31,-0.38l2.57,-0.45l0.68,-0.1l1.46,-0.13l0.77,-0.05l1.72,-0.07l0.91,-0.03l2.08,-0.02m99.04,-0.38l2.29,0.09l4.25,0.6l2.09,0.38l4.07,1.2l6.25,2.54l2.23,1.06l4.1,2.65l1.99,1.41l3.59,3.29l1.73,1.71l3.03,3.84l1.44,1.98l2.41,4.28l1.13,2.18l1.76,4.64l0.79,2.35l1.05,4.88l0.43,2.47l0.29,5.04l-0.48,7.63l-0.33,2.28l-1.08,4.37l-0.61,2.15l-1.63,4.08l-0.88,2l-2.15,3.77l-1.14,1.83l-2.63,3.42l-1.38,1.65l-3.1,3.03l-1.6,1.46l-3.53,2.61l-1.81,1.24l-3.94,2.15l-6.32,2.68l-0.93,0.32l-2.12,0.56l-1.09,0.26l-2.38,0.44l-2.43,0.4l-5.26,0.4l-2.63,0.13l-5.15,-0.15l-1.24,-0.08l-2.35,-0.26l-1.14,-0.15l-2.08,-0.42l-1.86,-0.42l-3.56,-1.16l-1.74,-0.62l-3.33,-1.52l-1.63,-0.81l-3.07,-1.87l-1.5,-0.97l-2.81,-2.18l-1.37,-1.13l-2.52,-2.46l-1.23,-1.26l-2.23,-2.71l-1.08,-1.39l-1.93,-2.93l-0.92,-1.48l-1.6,-3.12l-0.76,-1.58l-1.26,-3.28l-0.59,-1.65l-0.91,-3.41l-0.41,-1.71l-0.54,-3.5l-0.22,-1.76l-0.16,-3.56l-0.03,-1.79l0.24,-3.59l0.18,-1.8l0.65,-3.61l0.38,-1.79l1.08,-3.58l2.12,-5.29l0.94,-2.02l2.2,-3.71l1.16,-1.79l2.61,-3.25l1.35,-1.57l3.02,-2.8l1.55,-1.33l3.4,-2.33l1.75,-1.11l3.79,-1.86l1.94,-0.87l4.16,-1.38l2.12,-0.63l4.53,-0.9l7.19,-0.81l2.66,-0.16m-1.35,9.4l-2.09,0.02l-0.99,0.01l-1.68,0.06l-0.79,0.04l-1.36,0.11l-0.65,0.07l-1.16,0.19l-1.12,0.23l-2.12,0.77l-0.55,0.23l-1.22,0.56l-2.08,1.04l-2.09,1.07l-3.59,2.27l-1.7,1.18l-2.91,2.59l-1.38,1.35l-2.35,3.02l-3.03,5.16l-0.72,1.47l-1.19,2.95l-0.55,1.46l-0.85,2.93l-0.38,1.46l-0.51,2.91l-0.21,1.45l-0.16,2.88l-0.04,1.43l0.17,2.86l0.13,1.42l0.52,2.81l0.3,1.41l0.86,2.78l1.68,4.11l0.9,1.9l2.05,3.43l1.06,1.65l2.38,2.95l1.24,1.4l2.71,2.45l1.39,1.17l3.03,1.95l1.55,0.91l3.33,1.45l1.71,0.66l3.64,0.94l1.86,0.41l3.93,0.43l6.22,0.07l2.34,-0.12l4.98,-0.65l1.18,-0.19l2.08,-0.41l0.97,-0.21l1.45,-0.45l1.54,-0.54l3.26,-1.74l1.63,-0.95l3.22,-2.37l1.57,-1.24l2.87,-2.76l3.58,-4.34l1.22,-1.77l1.86,-3.6l0.85,-1.82l1.16,-3.86l0.49,-1.97l0.5,-4.31l0.06,-7.2l-0.09,-1.89l-0.46,-3.56l-0.27,-1.73l-0.83,-3.26l-0.47,-1.59l-1.2,-2.96l-0.66,-1.45l-1.59,-2.69l-0.85,-1.31l-1.99,-2.42l-1.04,-1.18l-2.4,-2.17l-1.24,-1.05l-2.8,-1.93l-4.67,-2.63l-0.93,-0.46l-1.56,-0.75l-0.75,-0.36l-1.29,-0.56l-1.26,-0.53l-2.26,-0.6l-0.58,-0.12l-1.28,-0.16l-0.66,-0.07l-1.52,-0.08l-0.8,-0.03l-1.9,-0.03l-3.41,0l-1.24,0z" fill="rgba(51,197,201,1)" id="svg_2"/>
   <path d="m525.75,34.3l1.62,0.04l2.98,0.07l1.45,0.04l2.68,0.08l1.3,0.05l2.41,0.09l1.16,0.04l2.15,0.11l2.09,0.11l3.54,0.26l1.68,0.15l2.88,0.37l1.37,0.2l2.42,0.5l1.18,0.26l2.18,0.66l1.08,0.36l2.15,0.85l3.43,1.53l0.8,0.37l1.7,1.01l0.87,0.55l1.79,1.31l1.81,1.38l3.6,3.35l1.75,1.74l3.09,3.68l0.71,0.92l1.25,1.81l1.52,2.6l0.91,1.78l1.47,3.67l0.68,1.85l1.03,3.78l0.46,1.89l0.59,3.84l0.23,1.92l0.14,3.86l0.01,1.93l-0.3,3.85l-0.21,1.92l-0.76,3.8l-0.43,1.89l-1.2,3.72l-2.31,5.43l-0.78,1.56l-2.27,3.33l-1.24,1.66l-2.96,3.29l-1.54,1.61l-3.35,2.94l-5.12,3.66l-1.24,0.75l-2.33,1.26l-1.16,0.59l-2.32,0.99l-1.18,0.47l-2.52,0.74l-1.3,0.35l-2.9,0.54l-1.52,0.25l-3.48,0.37l-1.83,0.16l-4.26,0.22l-2.25,0.1l-5.24,0.11l-1.37,0.02l-2.98,0.03l-4.81,0.02l-23.75,0.06l0,-49l11,0l0,40.1l15.75,-0.13l2.77,-0.02l4.97,-0.16l2.39,-0.1l4.28,-0.33l2.07,-0.19l3.69,-0.53l1.78,-0.29l3.2,-0.76l1.55,-0.41l2.81,-1.01l1.37,-0.54l2.52,-1.3l1.24,-0.68l2.33,-1.59l3.38,-2.77l0.98,-0.88l1.75,-1.85l0.84,-0.93l1.47,-1.97l0.71,-1l1.21,-2.11l0.58,-1.08l0.96,-2.27l0.44,-1.17l0.72,-2.46l0.33,-1.26l0.47,-2.69l0.22,-1.36l0.25,-2.92l0.13,-4.67l-0.02,-2.43l-0.43,-4.31l-0.28,-2.07l-1.01,-3.75l-0.58,-1.82l-1.66,-3.4l-3.29,-4.91l-1.18,-1.49l-2.54,-2.57l-1.31,-1.23l-2.88,-2.09l-1.48,-1l-3.31,-1.67l-5.53,-2.11l-1.22,-0.38l-2.59,-0.55l-0.7,-0.12l-1.57,-0.2l-0.82,-0.09l-1.9,-0.14l-1,-0.07l-2.35,-0.1l-1.25,-0.04l-2.9,-0.06l-1.54,-0.03l-3.58,-0.02l-6.25,-0.02l-3,0l-5.6,-0.05l-1.34,-0.01l-2.51,-0.04l-1.22,-0.03l-2.21,-0.05l-1.06,-0.03l-1.84,-0.06l-0.87,-0.03l-1.42,-0.07l-0.65,-0.04l-0.92,-0.08l-0.77,-0.12l-0.28,-0.1l-0.44,-0.43l-0.2,-0.25l-0.29,-0.74l-0.13,-0.42l-0.15,-1.1l-0.09,-2.1l0,-4.54m170.8,90.73l0.31,4.56l-33.01,0l-4.1,-0.01l-2.01,-0.01l-3.81,-0.03l-1.87,-0.02l-3.44,-0.04l-1.67,-0.03l-2.99,-0.06l-1.43,-0.03l-2.45,-0.06l-1.15,-0.04l-1.82,-0.08l-0.82,-0.04l-1.11,-0.08l-0.46,-0.05l-0.3,-0.09l-0.12,-0.12l-0.2,-0.46l-0.08,-0.26l-0.12,-0.69l-0.11,-0.72l-0.02,-1.75l0.02,-0.87l0.23,-1.54l0.07,-0.34l0.18,-0.52l0.34,-0.47l0.06,-0.04l0.73,-0.07l0.47,-0.04l1.47,-0.07l0.83,-0.03l2.13,-0.07l1.14,-0.03l2.7,-0.06l1.42,-0.02l3.19,-0.05l1.65,-0.03l3.59,-0.04l1.84,-0.02l3.91,-0.03l6.12,-0.02l30.39,-0.09m0.5,-33.88l-32.6,0l-3.13,0l-1.53,0l-2.79,-0.01l-1.35,0l-2.47,-0.02l-1.2,0l-2.16,-0.02l-1.05,-0.01l-1.89,-0.03l-0.9,-0.01l-1.62,-0.03l-1.56,-0.04l-2.41,-0.1l-1.1,-0.05l-1.62,-0.15l-0.72,-0.08l-0.98,-0.2l-0.42,-0.1l-0.5,-0.26l-0.21,-0.14l-0.18,-0.33l-0.17,-0.44l-0.26,-1.54l-0.18,-2.52l0,-2.92l63,0m0,-33l-32.22,0l-3.21,0l-1.56,0l-2.84,-0.01l-1.37,0l-2.5,-0.01l-1.2,-0.01l-2.17,-0.02l-1.05,-0.01l-1.87,-0.02l-0.9,-0.02l-1.6,-0.03l-1.52,-0.04l-2.33,-0.1l-1.05,-0.06l-1.52,-0.16l-0.68,-0.09l-0.89,-0.22l-0.39,-0.12l-0.47,-0.29l-0.19,-0.16l-0.21,-0.38l-0.23,-0.48l-0.34,-1.64l-0.22,-2.63l0.03,-3l62.5,-0.53l0,10.03z" fill="rgba(52,212,183,1)" id="svg_3"/>
   <path d="m204.23,55.75l0.27,20.75l56.5,0.53l0,-22.1l0.05,-5l0.01,-1.2l0.04,-2.25l0.03,-1.09l0.05,-1.98l0.03,-0.95l0.06,-1.66l0.03,-0.79l0.07,-1.28l0.04,-0.59l0.08,-0.84l0.12,-0.72l0.11,-0.28l0.43,-0.45l0.26,-0.2l0.78,-0.29l0.44,-0.12l1.19,-0.15l2.29,-0.09l4.89,0l0,94.1l-5.25,-0.3l-5.25,-0.3l0,-42.5l-57.5,0l0,43l-5.69,0l-1.25,-0.06l-0.59,-0.04l-0.99,-0.12l-0.45,-0.07l-0.62,-0.17l-0.25,-0.09l-0.13,-0.2l0,-0.03l0,-0.27l0,-0.18l0,-0.57l0,-0.32l0,-0.84l-0.01,-0.45l0,-1.1l-0.01,-1.16l-0.02,-3.03l-0.01,-1.63l-0.03,-3.86l-0.01,-2.03l-0.04,-4.58l-0.02,-2.36l-0.04,-5.17l-0.02,-2.65l-0.04,-5.63l-0.07,-8.85l-0.02,-3.02l-0.04,-5.86l-0.02,-2.88l-0.02,-5.49l-0.01,-2.68l-0.01,-4.99l0,-2.43l0,-4.37l0,-2.09l0.02,-3.63l0.01,-1.7l0.03,-2.75l0.02,-1.25l0.04,-1.75l0.02,-0.37l0.02,-0.53l0.05,-0.46l0.09,-0.5l0.29,-0.71l0.19,-0.31l0.62,-0.38l0.37,-0.16l1.16,-0.16l2.58,-0.07l4.86,0m-80.1,0.21l1.38,0.02l2.54,0.03l1.23,0.02l2.24,0.04l2.18,0.04l3.6,0.09l1.69,0.05l2.75,0.12l1.29,0.06l2.1,0.17l0.98,0.09l1.63,0.22l0.77,0.13l1.34,0.31l3.86,1.31l1.91,0.77l3.63,2.17l1.77,1.18l3.15,2.81l1.49,1.46l2.42,3.2l0.55,0.81l0.91,1.66l1.06,2.49l0.27,0.77l0.43,1.78l0.19,0.92l0.3,2l0.27,2.05l0.15,4.42l0.01,2.21l-0.36,4.22l-0.13,1.01l-0.35,1.88l-0.66,2.49l-0.5,1.46l-1.6,2.97l-0.89,1.47l-2.23,2.81l-1.18,1.37l-2.68,2.46l-4.36,3.06l-4.75,2.71l10.37,14.47l1.43,1.99l2.6,3.77l1.24,1.82l2.05,3.16l0.47,0.73l0.8,1.3l0.38,0.62l0.58,1.02l0.27,0.47l0.34,0.71l0.21,0.65l0,0.36l-0.2,0.53l-0.14,0.23l-0.58,0.31l-0.35,0.13l-1.11,0.14l-2.38,0.07l-4.76,0l-10.49,-14.98l-10.49,-14.99l-16.5,0.24l-16.5,0.23l-0.28,14.75l-0.27,14.75l-4.73,0l-4.72,0l0.58,-38.84l22.71,-0.34l1.39,-0.02l2.54,-0.04l1.23,-0.02l2.23,-0.03l1.08,-0.02l1.94,-0.04l0.94,-0.02l1.69,-0.05l1.63,-0.04l2.6,-0.12l1.2,-0.07l1.9,-0.17l0.89,-0.09l1.4,-0.25l0.66,-0.14l1.12,-0.34l3.27,-1.51l1.49,-0.79l2.26,-1.4l1.03,-0.7l1.56,-1.48l0.72,-0.77l1.16,-1.88l1.62,-3.6l0.43,-1.09l0.61,-2.27l0.26,-1.15l0.29,-2.32l0.11,-1.17l-0.01,-2.33l-0.04,-1.16l-0.31,-2.28l-0.18,-1.13l-0.59,-2.18l-0.33,-1.07l-0.87,-2.01l-0.47,-0.99l-1.13,-1.8l-2,-2.4l-0.73,-0.73l-1.46,-1.24l-0.75,-0.59l-1.6,-0.98l-0.84,-0.46l-1.89,-0.74l-1,-0.35l-2.33,-0.54l-1.23,-0.25l-2.91,-0.36l-1.54,-0.17l-3.63,-0.22l-1.92,-0.09l-4.5,-0.1l-1.18,-0.02l-2.56,-0.03l-4.14,-0.01l-2.71,0l-5.06,-0.04l-1.21,-0.01l-2.27,-0.04l-1.1,-0.02l-1.99,-0.04l-0.95,-0.03l-1.66,-0.05l-0.79,-0.03l-1.27,-0.06l-0.58,-0.03l-0.83,-0.07l-0.67,-0.1l-0.23,-0.09l-0.35,-0.38l-0.16,-0.23l-0.19,-0.68l-0.08,-0.37l-0.05,-0.98l0.09,-1.83l0.38,-4.05l23.64,0.34z" fill="rgba(53,176,219,1)" id="svg_4"/>
  </g>
 </g>
</svg>