<svg xmlns="http://www.w3.org/2000/svg" width="782" height="165" viewBox="0 0 782 165">
<g>
<path d="M 412.50,32.57 L 413.71,32.58 L 415.86,32.61 L 416.89,32.64 L 418.72,32.70 L 420.48,32.78 L 423.30,33.06 L 424.63,33.22 L 426.94,33.73 L 430.38,34.81 L 431.90,35.38 L 435.39,37.16 L 437.14,38.12 L 440.48,40.29 L 441.26,40.82 L 442.67,41.88 L 443.33,42.39 L 444.42,43.35 L 444.91,43.81 L 445.58,44.60 L 446.00,45.52 L 446.00,45.67 L 445.77,46.17 L 445.62,46.44 L 445.14,47.12 L 443.08,49.42 L 440.16,52.22 L 435.51,48.67 L 433.78,47.34 L 430.33,45.31 L 428.58,44.39 L 424.85,43.10 L 422.92,42.53 L 418.57,41.88 L 417.43,41.75 L 414.98,41.59 L 411.00,41.51 L 409.93,41.51 L 408.09,41.53 L 407.21,41.54 L 405.70,41.60 L 404.25,41.68 L 401.95,42.03 L 400.84,42.24 L 398.67,42.98 L 398.10,43.20 L 396.87,43.73 L 394.78,44.69 L 392.76,45.65 L 389.03,48.02 L 387.22,49.28 L 383.97,52.21 L 382.40,53.74 L 379.69,57.17 L 376.31,62.78 L 375.67,64.09 L 374.79,66.18 L 374.41,67.21 L 373.94,69.33 L 373.85,69.90 L 373.71,71.18 L 373.65,71.84 L 373.58,73.39 L 373.55,74.20 L 373.52,76.12 L 373.50,79.50 L 373.50,80.73 L 373.52,82.83 L 373.53,83.83 L 373.58,85.54 L 373.61,86.35 L 373.72,87.76 L 373.77,88.43 L 373.94,89.63 L 374.12,90.78 L 374.75,92.82 L 376.17,96.20 L 377.06,98.08 L 379.42,101.67 L 380.69,103.42 L 383.73,106.63 L 385.32,108.18 L 388.92,110.91 L 394.80,114.33 L 395.57,114.69 L 396.90,115.30 L 397.55,115.58 L 398.71,116.05 L 399.85,116.48 L 402.02,117.00 L 403.15,117.22 L 405.89,117.41 L 406.65,117.45 L 408.40,117.48 L 411.50,117.50 L 412.60,117.50 L 414.49,117.48 L 415.39,117.47 L 416.95,117.41 L 418.44,117.34 L 420.77,117.04 L 421.87,116.85 L 423.89,116.23 L 427.24,114.81 L 428.81,114.07 L 432.34,112.11 L 433.18,111.62 L 434.71,110.67 L 436.55,109.39 L 440.13,106.67 L 443.31,109.90 L 446.50,113.14 L 441.72,117.51 L 440.50,118.62 L 437.70,120.60 L 436.25,121.54 L 433.04,123.17 L 431.39,123.95 L 427.85,125.21 L 426.05,125.80 L 422.27,126.69 L 420.35,127.08 L 416.42,127.57 L 414.44,127.76 L 410.43,127.83 L 408.43,127.81 L 404.44,127.45 L 402.45,127.21 L 398.56,126.40 L 396.63,125.93 L 392.91,124.63 L 391.07,123.92 L 387.56,122.17 L 385.84,121.23 L 382.58,119.05 L 380.98,117.91 L 378.01,115.33 L 376.56,113.99 L 373.90,111.05 L 372.62,109.54 L 370.31,106.26 L 369.21,104.59 L 367.29,101.02 L 364.89,95.35 L 364.53,94.35 L 363.95,92.07 L 363.68,90.90 L 363.28,88.34 L 362.92,85.73 L 362.73,80.07 L 362.72,77.23 L 363.23,71.67 L 363.40,70.32 L 363.88,67.77 L 364.79,64.25 L 365.33,62.56 L 366.68,59.32 L 367.40,57.73 L 369.08,54.72 L 369.97,53.24 L 371.98,50.46 L 373.02,49.11 L 375.34,46.58 L 376.53,45.35 L 379.14,43.10 L 380.47,42.01 L 383.36,40.04 L 384.83,39.09 L 387.97,37.42 L 392.95,35.28 L 394.64,34.66 L 397.35,33.80 L 398.66,33.42 L 401.23,32.97 L 401.91,32.87 L 403.37,32.74 L 404.14,32.69 L 405.86,32.62 L 406.77,32.59 L 408.85,32.57 M 507.89,32.19 L 510.18,32.28 L 514.43,32.88 L 516.52,33.26 L 520.59,34.46 L 526.84,37.00 L 529.07,38.06 L 533.17,40.71 L 535.16,42.12 L 538.75,45.41 L 540.48,47.12 L 543.51,50.96 L 544.95,52.94 L 547.36,57.22 L 548.49,59.40 L 550.25,64.04 L 551.04,66.39 L 552.09,71.27 L 552.52,73.74 L 552.81,78.78 L 552.33,86.41 L 552.00,88.69 L 550.92,93.06 L 550.31,95.21 L 548.68,99.29 L 547.80,101.29 L 545.65,105.06 L 544.51,106.89 L 541.88,110.31 L 540.50,111.96 L 537.40,114.99 L 535.80,116.45 L 532.27,119.06 L 530.46,120.30 L 526.52,122.45 L 520.20,125.13 L 519.27,125.45 L 517.15,126.01 L 516.06,126.27 L 513.68,126.71 L 511.25,127.11 L 505.99,127.51 L 503.36,127.64 L 498.21,127.49 L 496.97,127.41 L 494.62,127.15 L 493.48,127.00 L 491.40,126.58 L 489.54,126.16 L 485.98,125.00 L 484.24,124.38 L 480.91,122.86 L 479.28,122.05 L 476.21,120.18 L 474.71,119.21 L 471.90,117.03 L 470.53,115.90 L 468.01,113.44 L 466.78,112.18 L 464.55,109.47 L 463.47,108.08 L 461.54,105.15 L 460.62,103.67 L 459.02,100.55 L 458.26,98.97 L 457.00,95.69 L 456.41,94.04 L 455.50,90.63 L 455.09,88.92 L 454.55,85.42 L 454.33,83.66 L 454.17,80.10 L 454.14,78.31 L 454.38,74.72 L 454.56,72.92 L 455.21,69.31 L 455.59,67.52 L 456.67,63.94 L 458.79,58.65 L 459.73,56.63 L 461.93,52.92 L 463.09,51.13 L 465.70,47.88 L 467.05,46.31 L 470.07,43.51 L 471.62,42.18 L 475.02,39.85 L 476.77,38.74 L 480.56,36.88 L 482.50,36.01 L 486.66,34.63 L 488.78,34.00 L 493.31,33.10 L 500.50,32.29 L 503.16,32.13 M 501.81,41.53 L 499.72,41.55 L 498.73,41.56 L 497.05,41.62 L 496.26,41.66 L 494.90,41.77 L 494.25,41.84 L 493.09,42.03 L 491.97,42.26 L 489.85,43.03 L 489.30,43.26 L 488.08,43.82 L 486.00,44.86 L 483.91,45.93 L 480.32,48.20 L 478.62,49.38 L 475.71,51.97 L 474.33,53.32 L 471.98,56.34 L 468.95,61.50 L 468.23,62.97 L 467.04,65.92 L 466.49,67.38 L 465.64,70.31 L 465.26,71.77 L 464.75,74.68 L 464.54,76.13 L 464.38,79.01 L 464.34,80.44 L 464.51,83.30 L 464.64,84.72 L 465.16,87.53 L 465.46,88.94 L 466.32,91.72 L 468.00,95.83 L 468.90,97.73 L 470.95,101.16 L 472.01,102.81 L 474.39,105.76 L 475.63,107.16 L 478.34,109.61 L 479.73,110.78 L 482.76,112.73 L 484.31,113.64 L 487.64,115.09 L 489.35,115.75 L 492.99,116.69 L 494.85,117.10 L 498.78,117.53 L 505.00,117.60 L 507.34,117.48 L 512.32,116.83 L 513.50,116.64 L 515.58,116.23 L 516.55,116.02 L 518.00,115.57 L 519.54,115.03 L 522.80,113.29 L 524.43,112.34 L 527.65,109.97 L 529.22,108.73 L 532.09,105.97 L 535.67,101.63 L 536.89,99.86 L 538.75,96.26 L 539.60,94.44 L 540.76,90.58 L 541.25,88.61 L 541.75,84.30 L 541.81,77.10 L 541.72,75.21 L 541.26,71.65 L 540.99,69.92 L 540.16,66.66 L 539.69,65.07 L 538.49,62.11 L 537.83,60.66 L 536.24,57.97 L 535.39,56.66 L 533.40,54.24 L 532.36,53.06 L 529.96,50.89 L 528.72,49.84 L 525.92,47.91 L 521.25,45.28 L 520.32,44.82 L 518.76,44.07 L 518.01,43.71 L 516.72,43.15 L 515.46,42.62 L 513.20,42.02 L 512.62,41.90 L 511.34,41.74 L 510.68,41.67 L 509.16,41.59 L 508.36,41.56 L 506.46,41.53 L 503.05,41.53 Z" fill="rgba(51,197,201,1)"/>
<path d="M 596.75,32.30 L 598.37,32.34 L 601.35,32.41 L 602.80,32.45 L 605.48,32.53 L 606.78,32.58 L 609.19,32.67 L 610.35,32.71 L 612.50,32.82 L 614.59,32.93 L 618.13,33.19 L 619.81,33.34 L 622.69,33.71 L 624.06,33.91 L 626.48,34.41 L 627.66,34.67 L 629.84,35.33 L 630.92,35.69 L 633.07,36.54 L 636.50,38.07 L 637.30,38.44 L 639.00,39.45 L 639.87,40.00 L 641.66,41.31 L 643.47,42.69 L 647.07,46.04 L 648.82,47.78 L 651.91,51.46 L 652.62,52.38 L 653.87,54.19 L 655.39,56.79 L 656.30,58.57 L 657.77,62.24 L 658.45,64.09 L 659.48,67.87 L 659.94,69.76 L 660.53,73.60 L 660.76,75.52 L 660.90,79.38 L 660.91,81.31 L 660.61,85.16 L 660.40,87.08 L 659.64,90.88 L 659.21,92.77 L 658.01,96.49 L 655.70,101.92 L 654.92,103.48 L 652.65,106.81 L 651.41,108.47 L 648.45,111.76 L 646.91,113.37 L 643.56,116.31 L 638.44,119.97 L 637.20,120.72 L 634.87,121.98 L 633.71,122.57 L 631.39,123.56 L 630.21,124.03 L 627.69,124.77 L 626.39,125.12 L 623.49,125.66 L 621.97,125.91 L 618.49,126.28 L 616.66,126.44 L 612.40,126.66 L 610.15,126.76 L 604.91,126.87 L 603.54,126.89 L 600.56,126.92 L 595.75,126.94 L 572.00,127.00 L 572.00,78.00 L 583.00,78.00 L 583.00,118.10 L 598.75,117.97 L 601.52,117.95 L 606.49,117.79 L 608.88,117.69 L 613.16,117.36 L 615.23,117.17 L 618.92,116.64 L 620.70,116.35 L 623.90,115.59 L 625.45,115.18 L 628.26,114.17 L 629.63,113.63 L 632.15,112.33 L 633.39,111.65 L 635.72,110.06 L 639.10,107.29 L 640.08,106.41 L 641.83,104.56 L 642.67,103.63 L 644.14,101.66 L 644.85,100.66 L 646.06,98.55 L 646.64,97.47 L 647.60,95.20 L 648.04,94.03 L 648.76,91.57 L 649.09,90.31 L 649.56,87.62 L 649.78,86.26 L 650.03,83.34 L 650.16,78.67 L 650.14,76.24 L 649.71,71.93 L 649.43,69.86 L 648.42,66.11 L 647.84,64.29 L 646.18,60.89 L 642.89,55.98 L 641.71,54.49 L 639.17,51.92 L 637.86,50.69 L 634.98,48.60 L 633.50,47.60 L 630.19,45.93 L 624.66,43.82 L 623.44,43.44 L 620.85,42.89 L 620.15,42.77 L 618.58,42.57 L 617.76,42.48 L 615.86,42.34 L 614.86,42.27 L 612.51,42.17 L 611.26,42.13 L 608.36,42.07 L 606.82,42.04 L 603.24,42.02 L 596.99,42.00 L 593.99,42.00 L 588.39,41.95 L 587.05,41.94 L 584.54,41.90 L 583.32,41.87 L 581.11,41.82 L 580.05,41.79 L 578.21,41.73 L 577.34,41.70 L 575.92,41.63 L 575.27,41.59 L 574.35,41.51 L 573.58,41.39 L 573.30,41.29 L 572.86,40.86 L 572.66,40.61 L 572.37,39.87 L 572.24,39.45 L 572.09,38.35 L 572.00,36.25 L 572.00,31.71 M 742.80,122.44 L 743.11,127.00 L 710.10,127.00 L 706.00,126.99 L 703.99,126.98 L 700.18,126.95 L 698.31,126.93 L 694.87,126.89 L 693.20,126.86 L 690.21,126.80 L 688.78,126.77 L 686.33,126.71 L 685.18,126.67 L 683.36,126.59 L 682.54,126.55 L 681.43,126.47 L 680.97,126.42 L 680.67,126.33 L 680.55,126.21 L 680.35,125.75 L 680.27,125.49 L 680.15,124.80 L 680.04,124.08 L 680.02,122.33 L 680.04,121.46 L 680.27,119.92 L 680.34,119.58 L 680.52,119.06 L 680.86,118.59 L 680.92,118.55 L 681.65,118.48 L 682.12,118.44 L 683.59,118.37 L 684.42,118.34 L 686.55,118.27 L 687.69,118.24 L 690.39,118.18 L 691.81,118.16 L 695.00,118.11 L 696.65,118.08 L 700.24,118.04 L 702.08,118.02 L 705.99,117.99 L 712.11,117.97 L 742.50,117.88 M 743.00,84.00 L 710.40,84.00 L 707.27,84.00 L 705.74,84.00 L 702.95,83.99 L 701.60,83.99 L 699.13,83.97 L 697.93,83.97 L 695.77,83.95 L 694.72,83.94 L 692.83,83.91 L 691.93,83.90 L 690.31,83.87 L 688.75,83.83 L 686.34,83.73 L 685.24,83.68 L 683.62,83.53 L 682.90,83.45 L 681.92,83.25 L 681.50,83.15 L 681.00,82.89 L 680.79,82.75 L 680.61,82.42 L 680.44,81.98 L 680.18,80.44 L 680.00,77.92 L 680.00,75.00 L 743.00,75.00 M 743.00,42.00 L 710.78,42.00 L 707.57,42.00 L 706.01,42.00 L 703.17,41.99 L 701.80,41.99 L 699.30,41.98 L 698.10,41.97 L 695.93,41.95 L 694.88,41.94 L 693.01,41.92 L 692.11,41.90 L 690.51,41.87 L 688.99,41.83 L 686.66,41.73 L 685.61,41.67 L 684.09,41.51 L 683.41,41.42 L 682.52,41.20 L 682.13,41.08 L 681.66,40.79 L 681.47,40.63 L 681.26,40.25 L 681.03,39.77 L 680.69,38.13 L 680.47,35.50 L 680.50,32.50 L 743.00,31.97 Z" fill="rgba(52,212,183,1)"/>
<path d="M 275.23,53.75 L 275.50,74.50 L 332.00,75.03 L 332.00,52.93 L 332.05,47.93 L 332.06,46.73 L 332.10,44.48 L 332.13,43.39 L 332.18,41.41 L 332.21,40.46 L 332.27,38.80 L 332.30,38.01 L 332.37,36.73 L 332.41,36.14 L 332.49,35.30 L 332.61,34.58 L 332.72,34.30 L 333.15,33.85 L 333.41,33.65 L 334.19,33.36 L 334.63,33.24 L 335.82,33.09 L 338.11,33.00 L 343.00,33.00 L 343.00,127.10 L 337.75,126.80 L 332.50,126.50 L 332.50,84.00 L 275.00,84.00 L 275.00,127.00 L 269.31,127.00 L 268.06,126.94 L 267.47,126.90 L 266.48,126.78 L 266.03,126.71 L 265.41,126.54 L 265.16,126.45 L 265.03,126.25 L 265.03,126.22 L 265.03,125.95 L 265.03,125.77 L 265.03,125.20 L 265.03,124.88 L 265.03,124.04 L 265.02,123.59 L 265.02,122.49 L 265.01,121.33 L 264.99,118.30 L 264.98,116.67 L 264.95,112.81 L 264.94,110.78 L 264.90,106.20 L 264.88,103.84 L 264.84,98.67 L 264.82,96.02 L 264.78,90.39 L 264.71,81.54 L 264.69,78.52 L 264.65,72.66 L 264.63,69.78 L 264.61,64.29 L 264.60,61.61 L 264.59,56.62 L 264.59,54.19 L 264.59,49.82 L 264.59,47.73 L 264.61,44.10 L 264.62,42.40 L 264.65,39.65 L 264.67,38.40 L 264.71,36.65 L 264.73,36.28 L 264.75,35.75 L 264.80,35.29 L 264.89,34.79 L 265.18,34.08 L 265.37,33.77 L 265.99,33.39 L 266.36,33.23 L 267.52,33.07 L 270.10,33.00 L 274.96,33.00 M 194.86,33.21 L 196.24,33.23 L 198.78,33.26 L 200.01,33.28 L 202.25,33.32 L 204.43,33.36 L 208.03,33.45 L 209.72,33.50 L 212.47,33.62 L 213.76,33.68 L 215.86,33.85 L 216.84,33.94 L 218.47,34.16 L 219.24,34.29 L 220.58,34.60 L 224.44,35.91 L 226.35,36.68 L 229.98,38.85 L 231.75,40.03 L 234.90,42.84 L 236.39,44.30 L 238.81,47.50 L 239.36,48.31 L 240.27,49.97 L 241.33,52.46 L 241.60,53.23 L 242.03,55.01 L 242.22,55.93 L 242.52,57.93 L 242.79,59.98 L 242.94,64.40 L 242.95,66.61 L 242.59,70.83 L 242.46,71.84 L 242.11,73.72 L 241.45,76.21 L 240.95,77.67 L 239.35,80.64 L 238.46,82.11 L 236.23,84.92 L 235.05,86.29 L 232.37,88.75 L 228.01,91.81 L 223.26,94.52 L 233.63,108.99 L 235.06,110.98 L 237.66,114.75 L 238.90,116.57 L 240.95,119.73 L 241.42,120.46 L 242.22,121.76 L 242.60,122.38 L 243.18,123.40 L 243.45,123.87 L 243.79,124.58 L 244.00,125.23 L 244.00,125.59 L 243.80,126.12 L 243.66,126.35 L 243.08,126.66 L 242.73,126.79 L 241.62,126.93 L 239.24,127.00 L 234.48,127.00 L 223.99,112.02 L 213.50,97.03 L 197.00,97.27 L 180.50,97.50 L 180.22,112.25 L 179.95,127.00 L 175.22,127.00 L 170.50,127.00 L 171.08,88.16 L 193.79,87.82 L 195.18,87.80 L 197.72,87.76 L 198.95,87.74 L 201.18,87.71 L 202.26,87.69 L 204.20,87.65 L 205.14,87.63 L 206.83,87.58 L 208.46,87.54 L 211.06,87.42 L 212.26,87.35 L 214.16,87.18 L 215.05,87.09 L 216.45,86.84 L 217.11,86.70 L 218.23,86.36 L 221.50,84.85 L 222.99,84.06 L 225.25,82.66 L 226.28,81.96 L 227.84,80.48 L 228.56,79.71 L 229.72,77.83 L 231.34,74.23 L 231.77,73.14 L 232.38,70.87 L 232.64,69.72 L 232.93,67.40 L 233.04,66.23 L 233.03,63.90 L 232.99,62.74 L 232.68,60.46 L 232.50,59.33 L 231.91,57.15 L 231.58,56.08 L 230.71,54.07 L 230.24,53.08 L 229.11,51.28 L 227.11,48.88 L 226.38,48.15 L 224.92,46.91 L 224.17,46.32 L 222.57,45.34 L 221.73,44.88 L 219.84,44.14 L 218.84,43.79 L 216.51,43.25 L 215.28,43.00 L 212.37,42.64 L 210.83,42.47 L 207.20,42.25 L 205.28,42.16 L 200.78,42.06 L 199.60,42.04 L 197.04,42.01 L 192.90,42.00 L 190.19,42.00 L 185.13,41.96 L 183.92,41.95 L 181.65,41.91 L 180.55,41.89 L 178.56,41.85 L 177.61,41.82 L 175.95,41.77 L 175.16,41.74 L 173.89,41.68 L 173.31,41.65 L 172.48,41.58 L 171.81,41.48 L 171.58,41.39 L 171.23,41.01 L 171.07,40.78 L 170.88,40.10 L 170.80,39.73 L 170.75,38.75 L 170.84,36.92 L 171.22,32.87 Z" fill="rgba(53,176,219,1)"/>
<path d="M 94.75,133.53 L 93.81,132.70 L 91.36,131.33 L 90.06,130.69 L 87.04,129.71 L 85.47,129.26 L 82.05,128.68 L 80.31,128.43 L 76.70,128.25 L 74.89,128.21 L 71.27,128.43 L 69.48,128.59 L 66.04,129.21 L 64.37,129.58 L 61.31,130.62 L 57.37,132.66 L 56.80,133.04 L 55.83,133.66 L 55.37,133.95 L 54.61,134.36 L 54.25,134.54 L 53.67,134.75 L 53.40,134.83 L 52.98,134.82 L 52.59,134.76 L 52.20,133.99 L 52.00,131.82 L 52.00,131.16 L 51.80,129.76 L 51.66,129.05 L 51.21,127.56 L 50.70,126.06 L 49.04,122.88 L 48.12,121.29 L 45.79,118.08 L 44.56,116.50 L 41.76,113.47 L 40.31,112.00 L 37.24,109.35 L 35.69,108.09 L 32.54,106.03 L 30.98,105.09 L 27.97,103.81 L 27.23,103.55 L 25.81,103.21 L 23.80,103.00 L 23.28,103.00 L 22.49,102.90 L 22.13,102.83 L 21.62,102.58 L 21.40,102.43 L 21.14,102.00 L 21.00,101.11 L 21.00,100.59 L 21.41,99.61 L 22.40,98.68 L 22.76,98.54 L 23.46,97.86 L 23.81,97.46 L 24.48,96.32 L 24.80,95.69 L 25.42,94.15 L 25.72,93.34 L 26.27,91.48 L 26.79,89.56 L 27.52,85.10 L 28.00,78.09 L 28.00,75.70 L 27.68,71.49 L 27.47,69.47 L 26.72,66.01 L 26.30,64.37 L 25.12,61.64 L 22.86,58.35 L 22.20,57.65 L 21.55,56.49 L 21.34,55.95 L 21.58,55.12 L 21.82,54.75 L 22.94,54.28 L 25.60,54.00 L 26.23,54.00 L 27.56,53.81 L 28.24,53.68 L 29.65,53.25 L 31.09,52.77 L 34.10,51.20 L 35.62,50.33 L 38.66,48.12 L 40.17,46.95 L 43.04,44.29 L 44.44,42.93 L 46.95,40.01 L 48.15,38.54 L 50.11,35.55 L 51.00,34.06 L 52.22,31.19 L 52.46,30.49 L 52.79,29.14 L 52.99,27.22 L 52.99,26.16 L 53.37,24.70 L 53.62,24.08 L 54.44,23.52 L 54.91,23.35 L 56.13,23.70 L 58.35,25.27 L 59.25,26.11 L 61.73,27.50 L 63.06,28.14 L 66.22,29.15 L 67.87,29.60 L 71.46,30.21 L 73.29,30.47 L 77.07,30.68 L 78.97,30.74 L 82.70,30.54 L 84.53,30.39 L 87.97,29.78 L 89.62,29.43 L 92.51,28.40 L 95.97,26.37 L 96.98,25.52 L 98.61,24.52 L 99.37,24.13 L 100.50,24.04 L 101.00,24.12 L 101.63,24.95 L 102.02,27.25 L 102.03,27.92 L 102.23,29.34 L 102.37,30.06 L 102.82,31.56 L 103.33,33.08 L 104.97,36.26 L 105.87,37.86 L 108.17,41.05 L 109.39,42.63 L 112.15,45.64 L 113.57,47.10 L 116.60,49.72 L 118.14,50.97 L 121.25,53.01 L 122.80,53.94 L 125.80,55.20 L 126.54,55.46 L 127.95,55.79 L 129.97,56.00 L 130.89,56.00 L 132.06,56.20 L 132.53,56.36 L 132.83,57.01 L 132.85,57.21 L 132.72,57.73 L 132.64,58.01 L 132.30,58.70 L 132.11,59.08 L 131.56,59.97 L 130.51,61.57 L 129.65,62.85 L 128.35,65.38 L 127.76,66.67 L 126.96,69.51 L 126.62,71.01 L 126.23,74.53 L 126.15,75.47 L 126.06,77.55 L 126.01,81.00 L 126.01,82.26 L 126.07,84.54 L 126.11,85.64 L 126.25,87.64 L 126.41,89.57 L 127.02,92.72 L 127.38,94.20 L 128.44,96.68 L 130.61,99.95 L 130.99,100.40 L 131.59,101.20 L 131.85,101.58 L 132.22,102.24 L 132.38,102.55 L 132.51,103.08 L 132.55,103.32 L 132.45,103.73 L 132.29,104.11 L 131.25,104.55 L 128.57,104.80 L 127.95,104.80 L 126.57,105.02 L 125.86,105.16 L 124.34,105.65 L 122.80,106.20 L 119.44,108.02 L 117.75,109.03 L 114.32,111.65 L 109.40,116.28 L 107.98,117.81 L 105.71,120.66 L 104.66,122.06 L 103.08,124.71 L 102.37,126.02 L 101.44,128.58 L 100.70,132.43 L 100.62,133.40 L 100.14,134.68 L 99.84,135.21 L 98.94,135.61 L 98.44,135.71 L 97.14,135.23 L 96.44,134.89 M 65.00,125.91 L 65.66,125.75 L 67.21,125.49 L 68.01,125.38 L 69.79,125.22 L 71.63,125.09 L 75.70,125.09 L 77.76,125.14 L 81.88,125.51 L 87.49,126.44 L 88.32,126.63 L 89.85,126.96 L 90.58,127.11 L 91.83,127.33 L 92.40,127.43 L 93.22,127.52 L 93.83,127.50 L 93.88,127.45 L 93.71,126.76 L 93.58,126.32 L 93.10,124.99 L 92.83,124.25 L 92.11,122.45 L 90.84,119.43 L 90.36,118.32 L 89.41,116.38 L 88.94,115.46 L 87.98,113.89 L 87.49,113.14 L 86.48,111.90 L 85.96,111.32 L 84.85,110.38 L 84.28,109.94 L 83.04,109.27 L 82.40,108.97 L 80.98,108.53 L 80.25,108.35 L 78.63,108.13 L 75.91,108.00 L 75.02,108.00 L 73.41,108.14 L 72.62,108.24 L 71.20,108.60 L 70.50,108.81 L 69.23,109.42 L 68.61,109.76 L 67.46,110.64 L 66.90,111.12 L 65.83,112.30 L 65.31,112.93 L 64.30,114.45 L 63.80,115.25 L 62.82,117.12 L 61.33,120.36 L 60.99,121.17 L 60.42,122.54 L 60.15,123.20 L 59.72,124.28 L 59.53,124.79 L 59.24,125.61 L 59.12,125.99 L 58.97,126.57 L 58.85,127.10 L 59.00,127.54 L 59.74,127.49 L 59.99,127.39 L 60.70,127.14 L 61.09,127.01 L 62.01,126.73 L 62.97,126.44 M 58.41,118.28 L 59.12,116.57 L 60.24,112.89 L 60.47,112.02 L 60.80,110.48 L 61.00,108.68 L 61.00,107.85 L 60.67,106.19 L 60.46,105.36 L 59.74,103.73 L 59.34,102.93 L 58.31,101.41 L 57.76,100.66 L 56.46,99.29 L 55.78,98.63 L 54.28,97.47 L 53.50,96.93 L 51.86,96.04 L 51.02,95.64 L 49.30,95.09 L 46.68,94.71 L 46.30,94.70 L 45.20,94.84 L 44.60,94.94 L 43.17,95.26 L 41.69,95.62 L 38.28,96.69 L 36.59,97.26 L 33.57,98.47 L 32.89,98.77 L 31.78,99.33 L 30.63,100.07 L 30.51,100.18 L 30.64,100.55 L 30.76,100.75 L 31.30,101.27 L 31.62,101.54 L 32.50,102.14 L 34.13,103.07 L 34.82,103.42 L 36.35,104.41 L 37.14,104.94 L 38.80,106.24 L 40.48,107.60 L 43.92,110.93 L 45.61,112.64 L 48.61,116.23 L 49.31,117.11 L 50.52,118.83 L 51.98,121.24 L 52.32,121.89 L 53.00,123.01 L 53.33,123.53 L 53.93,124.35 L 54.22,124.71 L 54.68,125.13 L 55.14,125.22 L 55.23,125.12 L 55.61,124.45 L 55.82,124.05 L 56.38,122.88 L 56.67,122.26 L 57.35,120.75 L 57.69,119.97 M 99.85,122.98 L 100.11,122.38 L 100.93,121.01 L 101.38,120.31 L 102.53,118.77 L 103.74,117.21 L 106.85,113.87 L 108.48,112.21 L 112.00,109.11 L 112.88,108.37 L 114.62,107.05 L 117.14,105.33 L 117.95,104.83 L 119.38,103.86 L 120.05,103.39 L 121.10,102.55 L 121.56,102.15 L 122.12,101.54 L 122.29,100.98 L 122.18,100.89 L 121.43,100.50 L 120.99,100.28 L 119.69,99.70 L 118.99,99.39 L 117.31,98.69 L 114.55,97.57 L 113.55,97.18 L 111.73,96.55 L 110.85,96.27 L 109.24,95.85 L 108.46,95.67 L 107.03,95.48 L 106.33,95.41 L 105.04,95.44 L 103.77,95.52 L 101.45,96.36 L 97.99,98.66 L 97.04,99.46 L 95.45,101.22 L 94.71,102.11 L 93.57,104.01 L 93.06,104.98 L 92.40,106.95 L 92.00,109.94 L 92.00,110.33 L 92.20,111.53 L 92.34,112.19 L 92.75,113.78 L 93.21,115.43 L 94.50,119.15 L 94.83,120.05 L 95.50,121.75 L 95.84,122.56 L 96.46,123.93 L 96.76,124.56 L 97.28,125.44 L 97.86,126.00 L 97.95,126.00 L 98.22,125.76 L 98.37,125.61 L 98.71,125.11 L 99.07,124.56 M 73.63,104.55 L 73.93,104.46 L 74.81,104.39 L 75.28,104.36 L 76.42,104.40 L 80.11,104.91 L 81.30,105.18 L 83.30,105.47 L 83.73,105.52 L 84.37,105.55 L 84.88,105.46 L 84.91,105.42 L 84.88,105.14 L 84.85,104.97 L 84.72,104.43 L 84.56,103.83 L 83.97,102.04 L 83.64,101.07 L 82.80,98.75 L 82.37,97.56 L 81.40,95.03 L 80.92,93.77 L 79.94,91.33 L 79.47,90.16 L 78.60,88.12 L 78.20,87.18 L 77.56,85.86 L 77.42,85.58 L 77.20,85.22 L 76.99,85.00 L 76.96,85.00 L 76.80,85.21 L 76.71,85.35 L 76.44,85.82 L 76.16,86.35 L 75.35,88.00 L 74.92,88.91 L 73.90,91.11 L 73.38,92.25 L 72.29,94.70 L 71.74,95.94 L 70.70,98.36 L 70.19,99.54 L 69.33,101.64 L 68.93,102.63 L 68.36,104.12 L 68.25,104.44 L 68.09,104.92 L 68.00,105.36 L 68.00,105.57 L 68.51,105.76 L 69.75,105.65 L 70.23,105.51 L 71.61,105.12 L 72.32,104.92 M 93.82,97.65 L 94.05,97.39 L 94.75,96.78 L 95.13,96.47 L 96.03,95.81 L 99.00,93.98 L 102.50,92.17 L 100.00,91.18 L 99.66,91.04 L 98.38,90.51 L 97.66,90.22 L 95.81,89.44 L 89.25,86.63 L 87.92,86.06 L 85.71,85.19 L 84.69,84.80 L 83.13,84.31 L 82.43,84.12 L 81.54,84.02 L 81.00,84.32 L 81.00,84.49 L 81.26,85.43 L 81.43,85.98 L 81.98,87.54 L 82.28,88.37 L 83.04,90.34 L 84.33,93.53 L 84.79,94.63 L 85.68,96.78 L 86.11,97.83 L 86.89,99.73 L 87.26,100.63 L 87.83,102.06 L 88.37,103.44 L 88.53,103.88 L 88.80,104.41 L 88.93,104.61 L 89.22,104.61 L 89.37,104.54 L 89.77,103.98 L 90.61,102.45 L 91.03,101.64 L 92.18,99.82 L 92.76,98.95 M 69.01,93.59 L 69.58,92.24 L 70.57,89.74 L 71.04,88.55 L 71.79,86.54 L 72.12,85.61 L 72.54,84.31 L 72.62,84.04 L 72.71,83.66 L 72.72,83.38 L 72.69,83.36 L 72.44,83.40 L 72.28,83.44 L 71.77,83.59 L 71.21,83.76 L 69.49,84.37 L 68.55,84.70 L 66.31,85.54 L 65.15,85.98 L 62.67,86.94 L 61.43,87.43 L 59.01,88.40 L 57.84,88.87 L 55.77,89.74 L 54.81,90.15 L 53.38,90.79 L 53.08,90.93 L 52.64,91.16 L 52.28,91.39 L 52.23,91.44 L 52.40,91.70 L 52.53,91.86 L 53.01,92.28 L 55.31,93.88 L 55.78,94.17 L 56.85,95.02 L 57.40,95.47 L 58.54,96.55 L 61.51,100.01 L 61.89,100.57 L 62.62,101.55 L 62.97,102.02 L 63.57,102.76 L 63.85,103.10 L 64.27,103.53 L 64.61,103.72 L 64.63,103.70 L 64.76,103.46 L 64.83,103.31 L 65.06,102.82 L 65.30,102.29 L 66.04,100.61 L 66.43,99.70 L 67.40,97.42 L 67.91,96.23 M 124.53,96.25 L 124.16,95.29 L 123.56,93.10 L 123.28,91.96 L 122.85,89.47 L 122.48,86.93 L 122.27,81.41 L 122.26,78.63 L 122.79,73.25 L 122.97,71.94 L 123.46,69.50 L 124.41,66.19 L 124.61,65.65 L 124.92,64.77 L 125.06,64.36 L 125.27,63.72 L 125.45,63.12 L 125.48,62.51 L 125.44,62.28 L 124.99,62.24 L 123.73,62.57 L 122.08,63.07 L 118.63,64.48 L 116.91,65.22 L 113.69,66.90 L 112.16,67.74 L 109.68,69.40 L 109.13,69.80 L 108.26,70.56 L 107.36,71.58 L 107.05,72.05 L 106.54,73.23 L 106.31,73.86 L 105.96,75.27 L 105.65,76.73 L 105.50,80.00 L 105.50,81.63 L 105.96,84.73 L 106.12,85.46 L 106.54,86.77 L 107.36,88.42 L 107.63,88.84 L 108.62,89.81 L 109.18,90.30 L 110.64,91.37 L 111.43,91.90 L 113.27,92.99 L 116.34,94.57 L 117.38,95.05 L 119.11,95.85 L 119.92,96.23 L 121.25,96.81 L 121.86,97.07 L 122.82,97.44 L 123.25,97.59 L 123.89,97.76 L 124.17,97.82 L 124.53,97.79 L 124.68,97.75 L 124.81,97.54 L 124.89,97.28 M 36.92,93.68 L 37.74,93.33 L 39.13,92.71 L 39.79,92.41 L 40.91,91.86 L 41.97,91.31 L 43.49,90.28 L 44.18,89.74 L 45.24,88.48 L 46.75,86.00 L 47.42,84.74 L 48.24,82.03 L 48.56,80.66 L 48.68,77.88 L 48.65,76.50 L 48.06,73.84 L 46.41,70.22 L 46.23,69.95 L 45.30,69.17 L 44.76,68.76 L 43.27,67.78 L 42.48,67.27 L 40.63,66.20 L 39.68,65.66 L 37.69,64.60 L 36.70,64.08 L 34.78,63.15 L 33.85,62.71 L 32.21,62.01 L 31.44,61.70 L 30.29,61.34 L 29.34,61.32 L 29.29,61.38 L 29.31,61.94 L 29.34,62.28 L 29.51,63.32 L 29.62,63.89 L 29.91,65.26 L 30.48,67.57 L 30.96,69.45 L 31.56,73.09 L 31.79,74.91 L 31.86,78.56 L 31.83,80.39 L 31.38,84.20 L 30.12,90.25 L 29.88,91.18 L 29.49,92.87 L 29.30,93.67 L 29.05,95.00 L 28.94,95.60 L 28.85,96.42 L 28.93,96.93 L 29.01,96.92 L 29.74,96.65 L 30.18,96.48 L 31.51,95.95 L 32.24,95.65 L 33.99,94.92 L 34.91,94.54 M 62.13,83.57 L 63.28,83.10 L 65.37,82.19 L 66.36,81.74 L 68.00,80.93 L 68.74,80.55 L 69.75,79.94 L 70.36,79.35 L 70.35,79.31 L 70.13,79.14 L 69.98,79.04 L 69.52,78.76 L 69.00,78.46 L 67.37,77.61 L 66.48,77.16 L 64.32,76.10 L 63.21,75.56 L 60.81,74.43 L 59.60,73.86 L 57.23,72.78 L 56.08,72.26 L 54.02,71.37 L 53.06,70.96 L 51.60,70.37 L 51.28,70.26 L 50.81,70.10 L 50.37,70.00 L 50.33,70.00 L 50.32,70.20 L 50.33,70.33 L 50.43,70.75 L 51.02,72.57 L 51.34,73.39 L 51.73,75.51 L 51.89,76.62 L 51.96,79.02 L 51.96,80.22 L 51.72,82.53 L 51.00,85.50 L 50.85,85.89 L 50.62,86.52 L 50.52,86.81 L 50.46,87.23 L 50.46,87.41 L 50.67,87.60 L 50.82,87.66 L 51.38,87.61 L 51.72,87.55 L 52.74,87.24 L 53.32,87.05 L 54.89,86.45 L 55.76,86.12 L 57.97,85.24 L 59.17,84.76 M 102.30,82.59 L 102.14,81.11 L 102.22,77.87 L 102.27,77.10 L 102.44,75.72 L 102.82,74.09 L 103.13,73.19 L 103.33,71.87 L 103.34,71.60 L 103.26,71.23 L 102.97,71.00 L 102.85,71.00 L 102.43,71.09 L 102.19,71.15 L 101.55,71.36 L 100.85,71.59 L 98.93,72.31 L 97.91,72.70 L 95.56,73.66 L 94.35,74.15 L 91.86,75.22 L 90.62,75.75 L 88.27,76.81 L 87.14,77.32 L 85.23,78.23 L 84.35,78.66 L 83.16,79.31 L 82.92,79.45 L 82.63,79.66 L 82.51,79.85 L 82.62,79.96 L 83.54,80.45 L 84.09,80.73 L 85.70,81.48 L 86.57,81.88 L 88.62,82.79 L 89.68,83.26 L 91.94,84.22 L 93.07,84.70 L 95.28,85.61 L 96.35,86.05 L 98.26,86.80 L 99.15,87.15 L 100.52,87.64 L 101.68,87.96 L 101.89,87.97 L 102.18,87.67 L 102.31,87.47 L 102.45,86.72 L 102.50,86.28 L 102.48,85.04 L 102.46,84.36 M 69.94,66.38 L 69.07,64.21 L 67.44,60.09 L 67.07,59.16 L 66.46,57.62 L 65.84,56.05 L 65.61,55.44 L 65.26,54.71 L 65.08,54.44 L 64.70,54.45 L 64.48,54.55 L 63.86,55.41 L 63.67,55.68 L 63.23,56.40 L 62.41,57.76 L 62.07,58.34 L 61.12,59.58 L 60.61,60.20 L 59.43,61.44 L 58.83,62.04 L 57.57,63.13 L 55.75,64.42 L 51.56,66.92 L 55.03,68.38 L 55.51,68.58 L 56.93,69.19 L 57.70,69.51 L 59.54,70.30 L 65.50,72.85 L 66.46,73.27 L 68.24,73.96 L 69.09,74.28 L 70.53,74.74 L 71.19,74.94 L 72.13,75.13 L 72.79,75.06 L 72.83,74.95 L 72.66,74.13 L 72.53,73.63 L 72.07,72.18 L 71.81,71.39 L 71.13,69.50 L 70.77,68.52 M 96.90,69.70 L 102.30,67.61 L 99.90,66.08 L 99.00,65.51 L 96.98,63.83 L 95.98,62.95 L 94.10,61.00 L 93.21,60.04 L 91.88,58.30 L 91.61,57.90 L 91.23,57.21 L 91.00,56.43 L 91.00,55.99 L 90.91,55.42 L 90.85,55.18 L 90.63,54.99 L 90.51,54.94 L 90.18,55.14 L 89.99,55.28 L 89.54,55.87 L 89.29,56.21 L 88.72,57.18 L 88.41,57.71 L 87.72,59.07 L 87.35,59.79 L 86.53,61.53 L 85.17,64.58 L 84.60,65.89 L 83.55,68.36 L 83.05,69.56 L 82.23,71.61 L 81.85,72.56 L 81.33,73.95 L 81.22,74.25 L 81.09,74.68 L 81.00,75.06 L 81.00,75.19 L 81.41,75.25 L 81.68,75.25 L 82.54,75.09 L 83.02,74.98 L 84.21,74.62 L 86.25,73.88 L 86.97,73.59 L 88.71,72.90 L 89.62,72.55 L 91.54,71.79 L 92.51,71.41 L 94.39,70.67 L 95.30,70.32 M 81.78,63.86 L 82.36,62.46 L 83.41,59.90 L 83.91,58.67 L 84.71,56.61 L 85.07,55.66 L 85.53,54.33 L 85.62,54.06 L 85.72,53.68 L 85.75,53.41 L 85.71,53.37 L 85.32,53.37 L 85.08,53.38 L 84.37,53.46 L 81.48,54.01 L 80.29,54.27 L 77.50,54.40 L 73.50,53.97 L 72.40,53.72 L 70.48,53.31 L 70.06,53.23 L 69.42,53.11 L 68.85,53.02 L 68.80,53.02 L 68.80,53.23 L 68.81,53.37 L 68.92,53.84 L 69.05,54.37 L 69.60,56.09 L 69.92,57.04 L 70.78,59.42 L 72.35,63.49 L 72.92,64.93 L 74.00,67.57 L 74.52,68.82 L 75.43,70.90 L 75.85,71.85 L 76.48,73.16 L 76.61,73.43 L 76.81,73.77 L 77.00,73.99 L 77.03,73.99 L 77.19,73.78 L 77.28,73.65 L 77.53,73.19 L 77.81,72.68 L 78.61,71.01 L 79.04,70.10 L 80.08,67.79 L 80.61,66.58 M 115.19,62.35 L 116.20,61.98 L 118.09,61.26 L 119.01,60.91 L 120.59,60.27 L 121.33,59.96 L 122.42,59.47 L 123.32,58.98 L 123.43,58.88 L 123.21,58.46 L 123.03,58.22 L 122.31,57.58 L 121.89,57.24 L 120.77,56.46 L 118.74,55.22 L 117.97,54.79 L 116.35,53.70 L 115.54,53.13 L 113.88,51.81 L 112.23,50.45 L 109.01,47.25 L 107.46,45.61 L 104.74,42.18 L 104.11,41.33 L 103.01,39.66 L 101.67,37.25 L 101.10,36.08 L 100.05,34.25 L 99.81,33.86 L 99.43,33.34 L 99.05,33.00 L 98.91,33.00 L 98.46,33.60 L 98.22,33.98 L 97.62,35.19 L 97.31,35.85 L 96.63,37.49 L 96.28,38.34 L 95.59,40.22 L 94.90,42.12 L 93.77,45.85 L 93.54,46.71 L 93.20,48.17 L 92.99,49.80 L 92.99,50.70 L 93.29,52.48 L 93.49,53.37 L 94.14,55.07 L 94.51,55.91 L 95.47,57.50 L 95.99,58.28 L 97.23,59.71 L 97.87,60.40 L 99.34,61.62 L 100.10,62.20 L 101.75,63.17 L 102.59,63.62 L 104.38,64.29 L 107.19,64.91 L 107.29,64.93 L 108.04,64.74 L 108.49,64.61 L 109.83,64.20 L 110.55,63.96 L 112.30,63.37 L 113.21,63.06 M 52.96,62.02 L 54.02,61.48 L 55.86,60.26 L 56.73,59.63 L 58.16,58.25 L 58.83,57.53 L 59.86,55.96 L 60.33,55.16 L 60.97,53.40 L 61.24,52.50 L 61.49,50.54 L 61.56,49.54 L 61.42,47.38 L 61.30,46.27 L 60.76,43.89 L 59.53,40.08 L 59.16,39.11 L 58.43,37.33 L 58.07,36.48 L 57.42,35.08 L 57.11,34.44 L 56.62,33.56 L 56.14,33.00 L 56.05,33.00 L 55.72,33.29 L 55.54,33.48 L 55.08,34.09 L 53.48,36.71 L 53.10,37.42 L 52.07,38.97 L 51.51,39.77 L 50.18,41.44 L 48.79,43.13 L 45.42,46.56 L 43.69,48.23 L 40.10,51.18 L 39.22,51.86 L 37.52,53.03 L 35.14,54.43 L 34.41,54.80 L 33.10,55.51 L 32.48,55.86 L 31.49,56.46 L 31.05,56.75 L 30.48,57.18 L 30.22,57.56 L 30.37,57.70 L 31.18,58.15 L 31.66,58.40 L 33.01,59.02 L 33.74,59.34 L 35.44,60.05 L 36.31,60.41 L 38.18,61.14 L 40.06,61.86 L 43.52,63.06 L 44.30,63.31 L 45.55,63.67 L 46.79,63.92 L 47.10,63.93 L 47.98,63.80 L 48.46,63.70 L 49.55,63.40 L 50.66,63.05 M 84.72,49.33 L 85.42,49.00 L 86.60,48.19 L 87.17,47.75 L 88.21,46.56 L 88.73,45.90 L 89.81,44.13 L 91.62,40.61 L 92.09,39.64 L 92.93,37.78 L 93.34,36.88 L 94.01,35.30 L 94.31,34.55 L 94.73,33.42 L 95.00,32.42 L 95.00,32.22 L 94.71,31.98 L 94.52,31.89 L 93.80,31.87 L 93.38,31.88 L 92.18,32.09 L 89.78,32.65 L 88.09,33.08 L 84.18,33.63 L 82.17,33.84 L 77.93,33.94 L 75.81,33.94 L 71.65,33.59 L 65.97,32.58 L 65.22,32.39 L 63.82,32.06 L 63.14,31.91 L 62.00,31.69 L 61.47,31.60 L 60.70,31.51 L 60.13,31.54 L 60.06,31.60 L 60.19,32.28 L 60.29,32.69 L 60.68,33.92 L 60.90,34.58 L 61.49,36.17 L 61.80,37.00 L 62.51,38.77 L 63.23,40.55 L 64.70,43.85 L 65.04,44.59 L 65.64,45.77 L 66.34,46.90 L 66.75,47.40 L 67.84,48.27 L 68.42,48.68 L 69.78,49.37 L 70.49,49.68 L 72.06,50.17 L 72.86,50.39 L 74.56,50.67 L 76.29,50.89 L 79.83,50.69 L 80.70,50.58 L 82.38,50.19 L 83.20,49.96 Z" fill="rgba(86,198,225,1)"/>
</g>
</svg>